<?xml version="1.0" encoding="UTF-8"?>
<svg xmlns="http://www.w3.org/2000/svg" xmlns:xlink="http://www.w3.org/1999/xlink" width="17px" height="20px" viewBox="0 0 17 19" version="1.1">
<g id="surface1">
<path style=" stroke:none;fill-rule:nonzero;fill:rgb(0%,0%,0%);fill-opacity:1;" d="M 14.453125 3.601562 C 12.863281 2.042969 10.746094 1.1875 8.496094 1.1875 C 3.851562 1.1875 0.0703125 4.882812 0.0703125 9.425781 C 0.0703125 10.875 0.460938 12.292969 1.195312 13.546875 L 0 17.8125 L 4.464844 16.664062 C 5.695312 17.324219 7.082031 17.667969 8.492188 17.667969 L 8.496094 17.667969 C 13.136719 17.667969 17 13.972656 17 9.429688 C 17 7.230469 16.042969 5.160156 14.453125 3.601562 Z M 8.496094 16.28125 C 7.238281 16.28125 6.003906 15.949219 4.929688 15.328125 L 4.675781 15.179688 L 2.027344 15.855469 L 2.730469 13.328125 L 2.566406 13.070312 C 1.863281 11.980469 1.496094 10.722656 1.496094 9.425781 C 1.496094 5.652344 4.636719 2.578125 8.5 2.578125 C 10.371094 2.578125 12.128906 3.292969 13.449219 4.585938 C 14.769531 5.882812 15.582031 7.601562 15.578125 9.429688 C 15.578125 13.207031 12.355469 16.28125 8.496094 16.28125 Z M 12.335938 11.152344 C 12.128906 11.046875 11.089844 10.550781 10.898438 10.484375 C 10.703125 10.414062 10.5625 10.378906 10.425781 10.585938 C 10.285156 10.796875 9.882812 11.253906 9.757812 11.394531 C 9.632812 11.535156 9.507812 11.550781 9.300781 11.449219 C 8.0625 10.84375 7.25 10.367188 6.4375 9 C 6.21875 8.636719 6.652344 8.660156 7.054688 7.875 C 7.121094 7.738281 7.089844 7.617188 7.035156 7.515625 C 6.980469 7.410156 6.5625 6.398438 6.386719 5.984375 C 6.214844 5.585938 6.042969 5.640625 5.910156 5.632812 C 5.789062 5.625 5.648438 5.625 5.511719 5.625 C 5.371094 5.625 5.140625 5.679688 4.949219 5.882812 C 4.753906 6.089844 4.210938 6.585938 4.210938 7.601562 C 4.210938 8.613281 4.96875 9.59375 5.070312 9.730469 C 5.175781 9.867188 6.554688 11.945312 8.667969 12.839844 C 10.003906 13.402344 10.527344 13.453125 11.195312 13.355469 C 11.601562 13.296875 12.4375 12.859375 12.613281 12.375 C 12.789062 11.894531 12.789062 11.480469 12.734375 11.394531 C 12.683594 11.304688 12.546875 11.25 12.335938 11.152344 Z M 12.335938 11.152344 "/>
</g>
</svg>
